<svg xmlns="http://www.w3.org/2000/svg" width="720" height="432" viewBox="0 0 720 432">
<rect width="100%" height="100%" rx="12" fill="#080a0c"/>
<style>text { font-family: SFMono-Regular, Menlo, Monaco, Consolas, monospace; font-size: 14px; white-space: pre; }</style>
<rect x="9" y="0" width="18" height="18" fill="#070a0c" opacity="1"/>
<text x="9" y="14.040000000000001" fill="#00afd7" font-weight="450" opacity="1">▰ </text>
<rect x="27" y="0" width="54" height="18" fill="#070a0c" opacity="1"/>
<text x="27" y="14.040000000000001" fill="#585858" font-weight="700" opacity="1">déherm</text>
<rect x="81" y="0" width="18" height="18" fill="#070a0c" opacity="1"/>
<text x="81" y="14.040000000000001" fill="#ff0000" font-weight="700" opacity="1"> ♥</text>
<rect x="99" y="0" width="252" height="18" fill="#070a0c" opacity="1"/>
<text x="99" y="14.040000000000001" fill="#d7af5f" font-weight="450" opacity="1">  TypeScript at engine speed</text>
<rect x="9" y="18" width="351" height="216" fill="#0f1419"/>
<rect x="9" y="18" width="9" height="18" fill="#070a0c" opacity="1"/>
<text x="9" y="32.04" fill="#ffb454" font-weight="450" opacity="1">┏</text>
<rect x="18" y="18" width="333" height="18" fill="#070a0c" opacity="1"/>
<text x="18" y="32.04" fill="#ffb454" font-weight="450" opacity="1">━━━━━━━━━━━━━━━━━━━━━━━━━━━━━━━━━━━━━</text>
<rect x="351" y="18" width="9" height="18" fill="#070a0c" opacity="1"/>
<text x="351" y="32.04" fill="#ffb454" font-weight="450" opacity="1">┓</text>
<rect x="9" y="216" width="9" height="18" fill="#070a0c" opacity="1"/>
<text x="9" y="230.04" fill="#1a1f26" font-weight="450" opacity="1">┗</text>
<rect x="18" y="216" width="333" height="18" fill="#070a0c" opacity="1"/>
<text x="18" y="230.04" fill="#1a1f26" font-weight="450" opacity="1">━━━━━━━━━━━━━━━━━━━━━━━━━━━━━━━━━━━━━</text>
<rect x="351" y="216" width="9" height="18" fill="#070a0c" opacity="1"/>
<text x="351" y="230.04" fill="#1a1f26" font-weight="450" opacity="1">┛</text>
<rect x="9" y="36" width="9" height="18" fill="#070a0c" opacity="1"/>
<text x="9" y="50.040000000000006" fill="#1a1f26" font-weight="450" opacity="1">┃</text>
<rect x="351" y="36" width="9" height="18" fill="#070a0c" opacity="1"/>
<text x="351" y="50.040000000000006" fill="#1a1f26" font-weight="450" opacity="1">┃</text>
<rect x="9" y="54" width="9" height="18" fill="#070a0c" opacity="1"/>
<text x="9" y="68.04" fill="#1a1f26" font-weight="450" opacity="1">┃</text>
<rect x="351" y="54" width="9" height="18" fill="#070a0c" opacity="1"/>
<text x="351" y="68.04" fill="#1a1f26" font-weight="450" opacity="1">┃</text>
<rect x="9" y="72" width="9" height="18" fill="#070a0c" opacity="1"/>
<text x="9" y="86.04" fill="#1a1f26" font-weight="450" opacity="1">┃</text>
<rect x="351" y="72" width="9" height="18" fill="#070a0c" opacity="1"/>
<text x="351" y="86.04" fill="#1a1f26" font-weight="450" opacity="1">┃</text>
<rect x="9" y="90" width="9" height="18" fill="#070a0c" opacity="1"/>
<text x="9" y="104.04" fill="#1a1f26" font-weight="450" opacity="1">┃</text>
<rect x="351" y="90" width="9" height="18" fill="#070a0c" opacity="1"/>
<text x="351" y="104.04" fill="#1a1f26" font-weight="450" opacity="1">┃</text>
<rect x="9" y="108" width="9" height="18" fill="#070a0c" opacity="1"/>
<text x="9" y="122.04" fill="#1a1f26" font-weight="450" opacity="1">┃</text>
<rect x="351" y="108" width="9" height="18" fill="#070a0c" opacity="1"/>
<text x="351" y="122.04" fill="#1a1f26" font-weight="450" opacity="1">┃</text>
<rect x="9" y="126" width="9" height="18" fill="#070a0c" opacity="1"/>
<text x="9" y="140.04" fill="#1a1f26" font-weight="450" opacity="1">┃</text>
<rect x="351" y="126" width="9" height="18" fill="#070a0c" opacity="1"/>
<text x="351" y="140.04" fill="#1a1f26" font-weight="450" opacity="1">┃</text>
<rect x="9" y="144" width="9" height="18" fill="#070a0c" opacity="1"/>
<text x="9" y="158.04" fill="#1a1f26" font-weight="450" opacity="1">┃</text>
<rect x="351" y="144" width="9" height="18" fill="#070a0c" opacity="1"/>
<text x="351" y="158.04" fill="#1a1f26" font-weight="450" opacity="1">┃</text>
<rect x="9" y="162" width="9" height="18" fill="#070a0c" opacity="1"/>
<text x="9" y="176.04" fill="#1a1f26" font-weight="450" opacity="1">┃</text>
<rect x="351" y="162" width="9" height="18" fill="#070a0c" opacity="1"/>
<text x="351" y="176.04" fill="#1a1f26" font-weight="450" opacity="1">┃</text>
<rect x="9" y="180" width="9" height="18" fill="#070a0c" opacity="1"/>
<text x="9" y="194.04" fill="#1a1f26" font-weight="450" opacity="1">┃</text>
<rect x="351" y="180" width="9" height="18" fill="#070a0c" opacity="1"/>
<text x="351" y="194.04" fill="#1a1f26" font-weight="450" opacity="1">┃</text>
<rect x="9" y="198" width="9" height="18" fill="#070a0c" opacity="1"/>
<text x="9" y="212.04" fill="#1a1f26" font-weight="450" opacity="1">┃</text>
<rect x="351" y="198" width="9" height="18" fill="#070a0c" opacity="1"/>
<text x="351" y="212.04" fill="#1a1f26" font-weight="450" opacity="1">┃</text>
<rect x="27" y="18" width="81" height="18" fill="#070a0c" opacity="1"/>
<text x="27" y="32.04" fill="#ffb454" font-weight="450" opacity="1">EDIT LOOP</text>
<rect x="27" y="54" width="315" height="18" fill="#0f1419" opacity="1"/>
<text x="27" y="68.04" fill="#d7af5f" font-weight="700" opacity="1">watch › ttsc › bundle › signal › a…</text>
<rect x="27" y="72" width="108" height="18" fill="#0f1419" opacity="1"/>
<text x="27" y="86.04" fill="#e8eef5" font-weight="450" opacity="1">runtime ack </text>
<rect x="135" y="72" width="9" height="18" fill="#0f1419" opacity="1"/>
<text x="135" y="86.04" fill="#e8eef5" font-weight="450" opacity="1">[</text>
<rect x="144" y="72" width="99" height="18" fill="#0f1419" opacity="1"/>
<text x="144" y="86.04" fill="#ffb454" font-weight="450" opacity="1">▓▓▓▓▓▓▓▓▓▓▓</text>
<rect x="243" y="72" width="90" height="18" fill="#0f1419" opacity="1"/>
<text x="243" y="86.04" fill="#1a1f26" font-weight="450" opacity="1">░░░░░░░░░░</text>
<rect x="333" y="72" width="9" height="18" fill="#0f1419" opacity="1"/>
<text x="333" y="86.04" fill="#e8eef5" font-weight="450" opacity="1">]</text>
<rect x="27" y="90" width="198" height="18" fill="#0f1419" opacity="1"/>
<text x="27" y="104.04" fill="#00afd7" font-weight="700" opacity="1">built 38 · applied 1/2</text>
<rect x="27" y="108" width="171" height="18" fill="#0f1419" opacity="1"/>
<text x="27" y="122.04" fill="#5f5f5f" font-weight="450" opacity="1">awaiting-activation</text>
<rect x="369" y="18" width="342" height="216" fill="#0f1419"/>
<rect x="369" y="18" width="9" height="18" fill="#070a0c" opacity="1"/>
<text x="369" y="32.04" fill="#ffb454" font-weight="450" opacity="1">┏</text>
<rect x="378" y="18" width="324" height="18" fill="#070a0c" opacity="1"/>
<text x="378" y="32.04" fill="#ffb454" font-weight="450" opacity="1">━━━━━━━━━━━━━━━━━━━━━━━━━━━━━━━━━━━━</text>
<rect x="702" y="18" width="9" height="18" fill="#070a0c" opacity="1"/>
<text x="702" y="32.04" fill="#ffb454" font-weight="450" opacity="1">┓</text>
<rect x="369" y="216" width="9" height="18" fill="#070a0c" opacity="1"/>
<text x="369" y="230.04" fill="#1a1f26" font-weight="450" opacity="1">┗</text>
<rect x="378" y="216" width="324" height="18" fill="#070a0c" opacity="1"/>
<text x="378" y="230.04" fill="#1a1f26" font-weight="450" opacity="1">━━━━━━━━━━━━━━━━━━━━━━━━━━━━━━━━━━━━</text>
<rect x="702" y="216" width="9" height="18" fill="#070a0c" opacity="1"/>
<text x="702" y="230.04" fill="#1a1f26" font-weight="450" opacity="1">┛</text>
<rect x="369" y="36" width="9" height="18" fill="#070a0c" opacity="1"/>
<text x="369" y="50.040000000000006" fill="#1a1f26" font-weight="450" opacity="1">┃</text>
<rect x="702" y="36" width="9" height="18" fill="#070a0c" opacity="1"/>
<text x="702" y="50.040000000000006" fill="#1a1f26" font-weight="450" opacity="1">┃</text>
<rect x="369" y="54" width="9" height="18" fill="#070a0c" opacity="1"/>
<text x="369" y="68.04" fill="#1a1f26" font-weight="450" opacity="1">┃</text>
<rect x="702" y="54" width="9" height="18" fill="#070a0c" opacity="1"/>
<text x="702" y="68.04" fill="#1a1f26" font-weight="450" opacity="1">┃</text>
<rect x="369" y="72" width="9" height="18" fill="#070a0c" opacity="1"/>
<text x="369" y="86.04" fill="#1a1f26" font-weight="450" opacity="1">┃</text>
<rect x="702" y="72" width="9" height="18" fill="#070a0c" opacity="1"/>
<text x="702" y="86.04" fill="#1a1f26" font-weight="450" opacity="1">┃</text>
<rect x="369" y="90" width="9" height="18" fill="#070a0c" opacity="1"/>
<text x="369" y="104.04" fill="#1a1f26" font-weight="450" opacity="1">┃</text>
<rect x="702" y="90" width="9" height="18" fill="#070a0c" opacity="1"/>
<text x="702" y="104.04" fill="#1a1f26" font-weight="450" opacity="1">┃</text>
<rect x="369" y="108" width="9" height="18" fill="#070a0c" opacity="1"/>
<text x="369" y="122.04" fill="#1a1f26" font-weight="450" opacity="1">┃</text>
<rect x="702" y="108" width="9" height="18" fill="#070a0c" opacity="1"/>
<text x="702" y="122.04" fill="#1a1f26" font-weight="450" opacity="1">┃</text>
<rect x="369" y="126" width="9" height="18" fill="#070a0c" opacity="1"/>
<text x="369" y="140.04" fill="#1a1f26" font-weight="450" opacity="1">┃</text>
<rect x="702" y="126" width="9" height="18" fill="#070a0c" opacity="1"/>
<text x="702" y="140.04" fill="#1a1f26" font-weight="450" opacity="1">┃</text>
<rect x="369" y="144" width="9" height="18" fill="#070a0c" opacity="1"/>
<text x="369" y="158.04" fill="#1a1f26" font-weight="450" opacity="1">┃</text>
<rect x="702" y="144" width="9" height="18" fill="#070a0c" opacity="1"/>
<text x="702" y="158.04" fill="#1a1f26" font-weight="450" opacity="1">┃</text>
<rect x="369" y="162" width="9" height="18" fill="#070a0c" opacity="1"/>
<text x="369" y="176.04" fill="#1a1f26" font-weight="450" opacity="1">┃</text>
<rect x="702" y="162" width="9" height="18" fill="#070a0c" opacity="1"/>
<text x="702" y="176.04" fill="#1a1f26" font-weight="450" opacity="1">┃</text>
<rect x="369" y="180" width="9" height="18" fill="#070a0c" opacity="1"/>
<text x="369" y="194.04" fill="#1a1f26" font-weight="450" opacity="1">┃</text>
<rect x="702" y="180" width="9" height="18" fill="#070a0c" opacity="1"/>
<text x="702" y="194.04" fill="#1a1f26" font-weight="450" opacity="1">┃</text>
<rect x="369" y="198" width="9" height="18" fill="#070a0c" opacity="1"/>
<text x="369" y="212.04" fill="#1a1f26" font-weight="450" opacity="1">┃</text>
<rect x="702" y="198" width="9" height="18" fill="#070a0c" opacity="1"/>
<text x="702" y="212.04" fill="#1a1f26" font-weight="450" opacity="1">┃</text>
<rect x="387" y="18" width="189" height="18" fill="#070a0c" opacity="1"/>
<text x="387" y="32.04" fill="#ffb454" font-weight="450" opacity="1">TARGETS / GENERATIONS</text>
<rect x="387" y="54" width="243" height="18" fill="#0f1419" opacity="1"/>
<text x="387" y="68.04" fill="#e8eef5" font-weight="700" opacity="1">Justin’s iPhone · arm64-ios</text>
<rect x="639" y="54" width="54" height="18" fill="#0f1419" opacity="1"/>
<text x="639" y="68.04" fill="#00afd7" font-weight="450" opacity="1">await…</text>
<rect x="387" y="72" width="216" height="18" fill="#0f1419" opacity="1"/>
<text x="387" y="86.04" fill="#5f5f5f" font-weight="450" opacity="1">applied 37  signalled 38</text>
<rect x="387" y="90" width="153" height="18" fill="#0f1419" opacity="1"/>
<text x="387" y="104.04" fill="#e8eef5" font-weight="700" opacity="1">Chrome · wasm-web</text>
<rect x="549" y="90" width="81" height="18" fill="#0f1419" opacity="1"/>
<text x="549" y="104.04" fill="#5fd787" font-weight="450" opacity="1">connected</text>
<rect x="387" y="108" width="207" height="18" fill="#0f1419" opacity="1"/>
<text x="387" y="122.04" fill="#5f5f5f" font-weight="450" opacity="1">applied 38  signalled —</text>
<rect x="9" y="252" width="702" height="18" fill="#070a0c" opacity="1"/>
<text x="9" y="266.03999999999996" fill="#444444" font-weight="450" opacity="1">┏━━━━━━━━━━━━━━━━━━━━━━━━━━━━━━━━━━━━━━━━━━━━━━━━━━━━━━━━━━━━━━━━━━━━━━━━━━━━┓</text>
<rect x="9" y="396" width="702" height="18" fill="#070a0c" opacity="1"/>
<text x="9" y="410.04" fill="#444444" font-weight="450" opacity="1">┗━━━━━━━━━━━━━━━━━━━━━━━━━━━━━━━━━━━━━━━━━━━━━━━━━━━━━━━━━━━━━━━━━━━━━━━━━━━━┛</text>
<rect x="9" y="270" width="9" height="18" fill="#070a0c" opacity="1"/>
<text x="9" y="284.03999999999996" fill="#444444" font-weight="450" opacity="1">┃</text>
<rect x="702" y="270" width="9" height="18" fill="#070a0c" opacity="1"/>
<text x="702" y="284.03999999999996" fill="#444444" font-weight="450" opacity="1">┃</text>
<rect x="9" y="288" width="9" height="18" fill="#070a0c" opacity="1"/>
<text x="9" y="302.04" fill="#444444" font-weight="450" opacity="1">┃</text>
<rect x="702" y="288" width="9" height="18" fill="#070a0c" opacity="1"/>
<text x="702" y="302.04" fill="#444444" font-weight="450" opacity="1">┃</text>
<rect x="9" y="306" width="9" height="18" fill="#070a0c" opacity="1"/>
<text x="9" y="320.04" fill="#444444" font-weight="450" opacity="1">┃</text>
<rect x="702" y="306" width="9" height="18" fill="#070a0c" opacity="1"/>
<text x="702" y="320.04" fill="#444444" font-weight="450" opacity="1">┃</text>
<rect x="9" y="324" width="9" height="18" fill="#070a0c" opacity="1"/>
<text x="9" y="338.04" fill="#444444" font-weight="450" opacity="1">┃</text>
<rect x="702" y="324" width="9" height="18" fill="#070a0c" opacity="1"/>
<text x="702" y="338.04" fill="#444444" font-weight="450" opacity="1">┃</text>
<rect x="9" y="342" width="9" height="18" fill="#070a0c" opacity="1"/>
<text x="9" y="356.04" fill="#444444" font-weight="450" opacity="1">┃</text>
<rect x="702" y="342" width="9" height="18" fill="#070a0c" opacity="1"/>
<text x="702" y="356.04" fill="#444444" font-weight="450" opacity="1">┃</text>
<rect x="9" y="360" width="9" height="18" fill="#070a0c" opacity="1"/>
<text x="9" y="374.04" fill="#444444" font-weight="450" opacity="1">┃</text>
<rect x="702" y="360" width="9" height="18" fill="#070a0c" opacity="1"/>
<text x="702" y="374.04" fill="#444444" font-weight="450" opacity="1">┃</text>
<rect x="9" y="378" width="9" height="18" fill="#070a0c" opacity="1"/>
<text x="9" y="392.04" fill="#444444" font-weight="450" opacity="1">┃</text>
<rect x="702" y="378" width="9" height="18" fill="#070a0c" opacity="1"/>
<text x="702" y="392.04" fill="#444444" font-weight="450" opacity="1">┃</text>
<rect x="27" y="252" width="81" height="18" fill="#070a0c" opacity="1"/>
<text x="27" y="266.03999999999996" fill="#444444" font-weight="450" opacity="1">LIVE LOGS</text>
<rect x="18" y="270" width="72" height="18" fill="#070a0c" opacity="1"/>
<text x="18" y="284.03999999999996" fill="#3e4b59" font-weight="450" opacity="1">01:59:59</text>
<rect x="99" y="270" width="63" height="18" fill="#070a0c" opacity="1"/>
<text x="99" y="284.03999999999996" fill="#e6e1cf" font-weight="450" opacity="1">[INFO ]</text>
<rect x="171" y="270" width="54" height="18" fill="#070a0c" opacity="1"/>
<text x="171" y="284.03999999999996" fill="#59c2ff" font-weight="450" opacity="1">watch </text>
<rect x="234" y="270" width="351" height="18" fill="#070a0c" opacity="1"/>
<text x="234" y="284.03999999999996" fill="#e6e1cf" font-weight="450" opacity="1">2 files changed · invalidated 7 modules</text>
<rect x="18" y="288" width="72" height="18" fill="#070a0c" opacity="1"/>
<text x="18" y="302.04" fill="#3e4b59" font-weight="450" opacity="1">01:59:59</text>
<rect x="99" y="288" width="63" height="18" fill="#070a0c" opacity="1"/>
<text x="99" y="302.04" fill="#e6e1cf" font-weight="450" opacity="1">[INFO ]</text>
<rect x="171" y="288" width="54" height="18" fill="#070a0c" opacity="1"/>
<text x="171" y="302.04" fill="#59c2ff" font-weight="450" opacity="1">ttsc  </text>
<rect x="234" y="288" width="315" height="18" fill="#070a0c" opacity="1"/>
<text x="234" y="302.04" fill="#e6e1cf" font-weight="450" opacity="1">typed transform 11.4 ms · cache 91%</text>
<rect x="18" y="306" width="72" height="18" fill="#070a0c" opacity="1"/>
<text x="18" y="320.04" fill="#3e4b59" font-weight="450" opacity="1">01:59:59</text>
<rect x="99" y="306" width="63" height="18" fill="#070a0c" opacity="1"/>
<text x="99" y="320.04" fill="#e6e1cf" font-weight="450" opacity="1">[INFO ]</text>
<rect x="171" y="306" width="54" height="18" fill="#070a0c" opacity="1"/>
<text x="171" y="320.04" fill="#59c2ff" font-weight="450" opacity="1">bundle</text>
<rect x="234" y="306" width="333" height="18" fill="#070a0c" opacity="1"/>
<text x="234" y="320.04" fill="#e6e1cf" font-weight="450" opacity="1">generation 38 · 180.5 KiB (-12.2 KiB)</text>
<rect x="18" y="324" width="72" height="18" fill="#070a0c" opacity="1"/>
<text x="18" y="338.04" fill="#3e4b59" font-weight="450" opacity="1">01:59:59</text>
<rect x="99" y="324" width="63" height="18" fill="#070a0c" opacity="1"/>
<text x="99" y="338.04" fill="#e6e1cf" font-weight="450" opacity="1">[INFO ]</text>
<rect x="171" y="324" width="54" height="18" fill="#070a0c" opacity="1"/>
<text x="171" y="338.04" fill="#59c2ff" font-weight="450" opacity="1">iphone</text>
<rect x="234" y="324" width="468" height="18" fill="#070a0c" opacity="1"/>
<text x="234" y="338.04" fill="#e6e1cf" font-weight="450" opacity="1">reload message enqueued · activation is not yet veri</text>
<rect x="18" y="342" width="72" height="18" fill="#070a0c" opacity="1"/>
<text x="18" y="356.04" fill="#3e4b59" font-weight="450" opacity="1">01:59:59</text>
<rect x="99" y="342" width="63" height="18" fill="#070a0c" opacity="1"/>
<text x="99" y="356.04" fill="#5c6773" font-weight="450" opacity="1">[DEBUG]</text>
<rect x="171" y="342" width="54" height="18" fill="#070a0c" opacity="1"/>
<text x="171" y="356.04" fill="#59c2ff" font-weight="450" opacity="1">hermes</text>
<rect x="234" y="342" width="441" height="18" fill="#070a0c" opacity="1"/>
<text x="234" y="356.04" fill="#5c6773" font-weight="450" opacity="1">candidate realm validating component schema 9f3a…</text>
<rect x="0" y="414" width="360" height="18" fill="#070a0c" opacity="1"/>
<text x="0" y="428.04" fill="#444444" font-weight="450" opacity="1">r reload  b build  t targets  : commands</text>
<rect x="648" y="414" width="72" height="18" fill="#070a0c" opacity="1"/>
<text x="648" y="428.04" fill="#d75f00" font-weight="700" opacity="1">q detach</text>
</svg>
